<?xml version="1.0" encoding="UTF-8"?>
<!DOCTYPE svg PUBLIC "-//W3C//DTD SVG 1.1//EN" "http://www.w3.org/Graphics/SVG/1.1/DTD/svg11.dtd">
<svg xmlns="http://www.w3.org/2000/svg" version="1.1" width="512px" height="512px" style="shape-rendering:geometricPrecision; text-rendering:geometricPrecision; image-rendering:optimizeQuality; fill-rule:evenodd; clip-rule:evenodd" xmlns:xlink="http://www.w3.org/1999/xlink">
<g><path style="opacity:0.965" fill="#000000" d="M 233.5,-0.5 C 248.167,-0.5 262.833,-0.5 277.5,-0.5C 367.555,10.0943 435.388,54.4276 481,132.5C 497.855,164.278 508.022,197.945 511.5,233.5C 511.5,247.833 511.5,262.167 511.5,276.5C 509.899,289.777 507.732,303.111 505,316.5C 499.317,350.401 480.817,374.235 449.5,388C 415.151,397.218 387.318,387.718 366,359.5C 361.843,352.854 358.509,345.854 356,338.5C 313.481,384.46 262.647,396.627 203.5,375C 146.333,346.185 120.833,299.685 127,235.5C 135.616,189.232 161.116,156.066 203.5,136C 252.141,117.401 297.141,123.734 338.5,155C 343.886,159.263 348.719,164.097 353,169.5C 353.333,164.167 353.667,158.833 354,153.5C 358.574,140.803 367.074,137.303 379.5,143C 382.467,145.1 384.3,147.934 385,151.5C 385.028,210.527 385.694,269.527 387,328.5C 393.407,348.123 406.907,358.789 427.5,360.5C 446.427,357.284 459.927,346.95 468,329.5C 493.484,245.918 478.151,170.918 422,104.5C 359.003,40.1753 283.503,18.342 195.5,39C 111.168,65.6649 58.0018,121.832 36,207.5C 20.5395,291.445 43.3728,362.945 104.5,422C 173.529,480.063 250.862,494.397 336.5,465C 346.285,460.941 355.952,456.608 365.5,452C 379.905,450.616 386.405,457.116 385,471.5C 383.65,476.185 380.817,479.685 376.5,482C 344.933,498.249 311.6,508.082 276.5,511.5C 262.167,511.5 247.833,511.5 233.5,511.5C 143.445,500.906 75.612,456.572 30,378.5C 13.1449,346.722 2.97822,313.055 -0.5,277.5C -0.5,262.833 -0.5,248.167 -0.5,233.5C 10.0943,143.445 54.4276,75.612 132.5,30C 164.278,13.1449 197.945,2.97822 233.5,-0.5 Z M 243.5,157.5 C 285.063,155.032 317.23,171.032 340,205.5C 360.56,245.111 357.56,282.778 331,318.5C 303.097,349.133 268.931,359.633 228.5,350C 178.87,331.931 155.37,296.431 158,243.5C 167.346,195.654 195.846,166.987 243.5,157.5 Z"/></g>
</svg>
