<?xml version="1.0" encoding="UTF-8"?>
<!DOCTYPE svg PUBLIC "-//W3C//DTD SVG 1.1//EN" "http://www.w3.org/Graphics/SVG/1.1/DTD/svg11.dtd">
<svg xmlns="http://www.w3.org/2000/svg" version="1.1" width="512px" height="512px" style="shape-rendering:geometricPrecision; text-rendering:geometricPrecision; image-rendering:optimizeQuality; fill-rule:evenodd; clip-rule:evenodd" xmlns:xlink="http://www.w3.org/1999/xlink">
<g><path style="opacity:0.988" fill="#000000" d="M 115.5,110.5 C 208.834,110.333 302.167,110.5 395.5,111C 418.89,114.9 435.89,127.4 446.5,148.5C 392.514,176.827 338.18,204.661 283.5,232C 263.718,238.275 244.052,237.942 224.5,231C 170.975,203.739 117.642,176.239 64.5,148.5C 75.862,128.122 92.862,115.455 115.5,110.5 Z"/></g>
<g><path style="opacity:0.991" fill="#000000" d="M 57.5,181.5 C 108.935,207.051 160.269,232.885 211.5,259C 240.833,270.333 270.167,270.333 299.5,259C 350.043,232.965 400.71,207.131 451.5,181.5C 452.667,235.83 452.833,290.164 452,344.5C 445.061,375.772 425.894,394.605 394.5,401C 301.833,401.667 209.167,401.667 116.5,401C 86.199,395.699 67.0323,378.199 59,348.5C 57.525,292.866 57.025,237.199 57.5,181.5 Z"/></g>
</svg>
